<svg height="512" viewBox="0 0 64 64" width="512" xmlns="http://www.w3.org/2000/svg"><g id="flat"><path d="m27 3h22a0 0 0 0 1 0 0v34a2 2 0 0 1 -2 2h-20a2 2 0 0 1 -2-2v-32a2 2 0 0 1 2-2z" fill="#dd3e46" transform="matrix(-1 0 0 -1 74 42)"/><path d="m19 57h18v4h-18z" fill="#50b4f8" transform="matrix(-1 0 0 -1 56 118)"/><path d="m38 39v12l-3 3v3h-14v-3l-6-15 8-7.2 2-1.8v-2a3 3 0 0 1 6 0v11z" fill="#ffd782"/><path d="m38 45h6a3 3 0 0 0 3-3 3 3 0 0 0 -3-3h-6z" fill="#f9bb4b"/><path d="m41 45h4a0 0 0 0 1 0 0v6a0 0 0 0 1 0 0h-4a3 3 0 0 1 -3-3 3 3 0 0 1 3-3z" fill="#eaa83d" transform="matrix(-1 0 0 -1 83 96)"/><path d="m25 30v12h-2v-10.2z" fill="#eaa83d"/><g fill="#f4f4e6"><path d="m30 12h-2v-5a1 1 0 0 1 1-1h7v2h-6z"/><path d="m28 14h2v2h-2z"/></g></g></svg>