<svg height="512pt" viewBox="0 -26 512.00032 512" width="512pt" xmlns="http://www.w3.org/2000/svg"><path d="m441.378906 459.035156h-123.585937v-123.585937l-44.136719 26.484375-26.484375-52.96875 51.792969-38.839844c12.222656-9.167969 27.089844-14.125 42.371094-14.125h76.5c15.28125 0 30.148437 4.957031 42.371093 14.125l51.792969 38.839844-26.484375 52.964844-44.136719-26.480469zm0 0" fill="#dc4d41"/><path d="m379.585938 300.136719c19.5 0 35.3125-15.808594 35.3125-35.308594v-8.828125h-70.621094v8.828125c0 19.5 15.808594 35.308594 35.308594 35.308594zm17.65625-35.308594c0 9.75-7.90625 17.65625-17.65625 17.65625s-17.65625-7.90625-17.65625-17.65625zm0 0" fill="#f9f9f9"/><path d="m194.207031 203.035156h-123.585937v-123.585937l-44.136719 26.480469-26.484375-52.964844 51.792969-38.839844c12.222656-9.167969 27.089843-14.125 42.371093-14.125h76.5c15.28125 0 30.148438 4.957031 42.371094 14.125l51.792969 38.839844-26.484375 52.964844-44.136719-26.480469zm0 0" fill="#dc4d41"/><g fill="#f9f9f9"><path d="m132.414062 44.136719c19.5 0 35.308594-15.808594 35.308594-35.308594v-8.828125h-70.621094v8.828125c0 19.5 15.8125 35.308594 35.3125 35.308594zm17.65625-35.308594c0 9.75-7.90625 17.65625-17.65625 17.65625s-17.65625-7.90625-17.65625-17.65625zm0 0"/><path d="m203.765625 85.1875 15.195313 9.109375 27.398437-55.179687-14.363281-10.773438zm0 0"/><path d="m265.746094 295.035156 27.851562 54.933594 15.171875-9.109375-28.6875-56.574219zm0 0"/><path d="m450.976562 341.203125 15.183594 9.109375 27.539063-55.074219-14.359375-10.769531zm0 0"/></g><path d="m379.585938 17.65625-61.792969 70.621094h35.3125v61.792968h52.964843v-61.792968h35.308594zm0 0" fill="#85bc94"/><path d="m132.414062 441.378906-61.792968-70.621094h35.308594v-61.792968h52.964843v61.792968h35.3125zm0 0" fill="#f3af3e"/><path d="m370.757812 176.550781h17.65625v17.65625h-17.65625zm0 0" fill="#8dc79d"/><path d="m370.757812 211.863281h17.65625v17.65625h-17.65625zm0 0" fill="#8dc79d"/><path d="m123.585938 229.519531h17.65625v17.652344h-17.65625zm0 0" fill="#fbb540"/><path d="m123.585938 264.828125h17.65625v17.65625h-17.65625zm0 0" fill="#fbb540"/><path d="m18.457031 39.125 27.410157 55.171875 15.183593-9.109375-28.230469-56.84375zm0 0" fill="#f9f9f9"/><path d="m105.929688 0h52.964843v8.828125c0 14.625-11.855469 26.484375-26.480469 26.484375s-26.484374-11.859375-26.484374-26.484375zm0 0" fill="#b94137"/><path d="m353.105469 256h52.964843v8.828125c0 14.625-11.859374 26.484375-26.484374 26.484375s-26.484376-11.859375-26.484376-26.484375v-8.828125zm0 0" fill="#b94137"/></svg>