<svg height="512" viewBox="0 0 64 64" width="512" xmlns="http://www.w3.org/2000/svg"><g id="flat"><path d="m17 3h20a2 2 0 0 1 2 2v34a0 0 0 0 1 0 0h-22a2 2 0 0 1 -2-2v-32a2 2 0 0 1 2-2z" fill="#fcf05a"/><path d="m36 10h-2v-2h-4v-2h5a1 1 0 0 1 1 1z" fill="#fff"/><path d="m34 12h2v2h-2z" fill="#fff"/><path d="m27 57h18v4h-18z" fill="#50b4f8"/><path d="m49 39-6 15v3h-14v-3l-3-3v-12h7v-11a3 3 0 0 1 6 0v2l2 1.8z" fill="#f9bb4b"/><path d="m26 45h-6a3 3 0 0 1 -3-3 3 3 0 0 1 3-3h6z" fill="#e29c2b"/><path d="m22 45h4a0 0 0 0 1 0 0v6a0 0 0 0 1 0 0h-4a3 3 0 0 1 -3-3 3 3 0 0 1 3-3z" fill="#c6821e"/><path d="m41 31.8v10.2h-2v-12z" fill="#e29c2b"/><g fill="#fff"><path d="m18 34h2v2h-2z"/><path d="m22 34h2v2h-2z"/></g></g></svg>